# AST/ASF file generated using VICON BodyLanguage
# -----------------------------------------------
:version 1.10
:name VICON
:units
  mass 1.0
  length 0.45
  angle deg
:documentation
   .ast/.asf automatically generated from VICON data using
   VICON BodyBuilder and BodyLanguage model FoxedUp or BRILLIANT.MOD
:root
   order TX TY TZ RX RY RZ
   axis XYZ
   position 0 0 0  
   orientation 0 0 0 
:bonedata
  begin
     id 1 
     name lhipjoint
     direction 0.711131 -0.61297 0.344326 
     length 2.29162 
     axis 0 0 0  XYZ
  end
  begin
     id 2 
     name lfemur
     direction 0.34202 -0.939693 0  
     length 6.71424  
     axis 0 0 20  XYZ
    dof rx ry rz
    limits (-160.0 20.0)
           (-70.0 70.0)
           (-60.0 70.0)
  end
  begin
     id 3 
     name ltibia
     direction 0.34202 -0.939693 0   
     length 6.7087   
     axis 0 0 20   XYZ
    dof rx
    limits (-10.0 170.0)
  end
  begin
     id 4 
     name lfoot
     direction 0.0230374 -0.0632947 0.997729   
     length 1.56743   
     axis -90 7.62852e-016 20   XYZ
    dof rx rz
    limits (-45.0 90.0)
           (-70.0 20.0)
  end
  begin
     id 5 
     name ltoes
     direction 1.53585e-011 -4.21885e-011 1   
     length 0.802914   
     axis -90 7.62852e-016 20   XYZ
    dof rx
    limits (-90.0 20.0)
  end
  begin
     id 6 
     name rhipjoint
     direction -0.733192 -0.592884 0.333043   
     length 2.36925  
     axis 0 0 0  XYZ 
  end
  begin
     id 7 
     name rfemur
     direction -0.34202 -0.939693 0   
     length 6.67027   
     axis 0 0 -20   XYZ
    dof rx ry rz
    limits (-160.0 20.0)
           (-70.0 70.0)
           (-70.0 60.0)
  end
  begin
     id 8 
     name rtibia
     direction -0.34202 -0.939693 0   
     length 6.6862   
     axis 0 0 -20   XYZ
    dof rx
    limits (-10.0 170.0)
 end
 begin
     id 9 
     name rfoot
     direction -0.0949739 -0.260939 0.960672   
     length 1.67698  
     axis -90 -7.62852e-016 -20   XYZ
    dof rx rz
    limits (-45.0 90.0)
           (-20.0 70.0)
  end
  begin
     id 10 
     name rtoes
     direction -1.5353e-011 -4.21868e-011 1   
     length 0.846298   
     axis -90 -7.62852e-016 -20   XYZ
    dof rx
    limits (-90.0 20.0)
  end
  begin
     id 11 
     name lowerback
     direction -0.0206828 0.999785 -0.00109866   
     length 2.04382   
     axis 0 0 0   XYZ
    dof rx ry rz
    limits (-20.0 45.0)
           (-30.0 30.0)
           (-30.0 30.0)
  end
  begin
     id 12 
     name upperback
     direction -0.0105003 0.999727 -0.0208904   
     length 2.04538   
     axis 0 0 0   XYZ
    dof rx ry rz
    limits (-20.0 45.0)
           (-30.0 30.0)
           (-30.0 30.0)
  end
  begin
     id 13 
     name thorax
     direction -0.000416255 0.999808 -0.0196023   
     length 2.0399   
     axis 0 0 0   XYZ
    dof rx ry rz
    limits (-20.0 45.0)
           (-30.0 30.0)
           (-30.0 30.0)
  end
  begin
     id 14 
     name lowerneck
     direction 0.0627861 0.989205 0.13241   
     length 1.46207   
     axis 0 0 0   XYZ
    dof rx ry rz
    limits (-20.0 45.0)
           (-30.0 30.0)
           (-30.0 30.0)
  end
  begin
     id 15 
     name upperneck
     direction 0.00627179 0.994526 0.104303   
     length 1.41419   
     axis 0 0 0   XYZ
    dof rx ry rz
    limits (-20.0 45.0)
           (-30.0 30.0)
           (-30.0 30.0)
  end
  begin
     id 16
     name head
     direction -0.00443838 0.999688 0.0245968  
     length 1.50718  
     axis 0 0 0   XYZ
    dof rx ry rz
    limits (-20.0 45.0)
           (-30.0 30.0)
           (-30.0 30.0)
  end
  begin
     id 17 
     name lclavicle
     direction 0.758742 0.650995 -0.0227258  
     length 2.86888  
     axis 0 0 0   XYZ
    dof ry rz
    limits (-20.0 10.0)
           (0.0 20.0)
  end
  begin
     id 18 
     name lhumerus
     direction 1 -4.48962e-011 1.06664e-027   
     length 4.65776   
     axis -180 -30 -90   XYZ
    dof rx ry rz
    limits (-60.0 90.0)
           (-90.0 90.0)
           (-90.0 90.0)
  end
  begin
     id 19
     name lradius
     direction 1 -4.48968e-011 1.40404e-026   
     length 3.55539   
     axis -180 -30 -90   XYZ
    dof rx
    limits (-10.0 170.0)
  end
  begin
     id 20
     name lwrist
     direction 1 -4.48976e-011 3.32647e-026   
     length 1.77769   
     axis -2.20186e-014 90 90   XYZ
    dof ry
    limits (-180.0 0.0)
 end
  begin
     id 21 
     name lhand
     direction 1 -4.48982e-011 6.65293e-026   
     length 0.707264   
     axis -4.24514e-014 90 90   XYZ
    dof rx rz
    limits (-90.0 90.0)
           (-45.0 45.0)
  end
  begin
     id 22 
     name lfingers
     direction 1 -4.48966e-011 1.33059e-025   
     length 0.570215   
     axis -8.49028e-014 90 90   XYZ
    dof rx
    limits (0.0 90.0)
  end
  begin
     id 23
     name lthumb
     direction 0.707107 -6.3493e-011 0.707107   
     length 0.818718   
     axis -90 45 2.85299e-015   XYZ
    dof rx rz
    limits (-45.0 45.0)
           (-45.0 45.0)
  end
  begin
     id 24 
     name rclavicle
     direction -0.870343 0.482028 -0.100759   
     length 3.2251  
     axis 0 0 0   XYZ 
    dof ry rz
    limits (-10.0 20.0)
           (-20.0 0.0)
  end
  begin
     id 25 
     name rhumerus
     direction -1 -4.48974e-011 -9.45849e-028  
     length 4.71925   
     axis -180 30 90   XYZ
    dof rx ry rz
    limits (-90.0 60.0)
           (-90.0 90.0)
           (-90.0 90.0)
  end
  begin
     id 26 
     name rradius
     direction -1 -4.48965e-011 1.17607e-026   
     length 3.5699   
     axis -180 30 90   XYZ
    dof rx
    limits (-10.0 170.0)
  end
  begin
     id 27 
     name rwrist
     direction -1 -4.48968e-011 3.32647e-026   
     length 1.78495   
     axis -2.20186e-014 -90 -90   XYZ
    dof ry
    limits (-180.0 0.0)
  end
  begin
     id 28
     name rhand
     direction -1 -4.48995e-011 6.65293e-026   
     length 0.507757   
     axis -4.24514e-014 -90 -90   XYZ
    dof rx rz
    limits (-90.0 90.0)
           (-45.0 45.0)
  end
  begin
     id 29
     name rfingers
     direction -1 -4.48864e-011 1.33059e-025   
     length 0.409367   
     axis -8.49028e-014 -90 -90   XYZ
    dof rx
    limits (0.0 90.0)
  end
  begin
     id 30
     name rthumb
     direction -0.707107 -6.3494e-011 0.707107   
     length 0.587771   
     axis -90 -45 -2.85299e-015   XYZ
    dof rx rz
    limits (-45.0 45.0)
           (-45.0 45.0)
  end
:hierarchy
  begin
    root lhipjoint rhipjoint lowerback
    lhipjoint lfemur
    lfemur ltibia
    ltibia lfoot
    lfoot ltoes
    rhipjoint rfemur
    rfemur rtibia
    rtibia rfoot
    rfoot rtoes
    lowerback upperback
    upperback thorax
    thorax lowerneck lclavicle rclavicle
    lowerneck upperneck
    upperneck head
    lclavicle lhumerus
    lhumerus lradius
    lradius lwrist
    lwrist lhand lthumb
    lhand lfingers
    rclavicle rhumerus
    rhumerus rradius
    rradius rwrist
    rwrist rhand rthumb
    rhand rfingers
  end

#!OML:ASF E:\Steps\Project 1\Capture day 1\Session 2\Subject.ASF
:FULLY-SPECIFIED
:DEGREES
32
root -0.991593 19.6774 20.591 -152.463 -2.96275 176.191
lowerback -27.5172 -2.63272 -7.92393
upperback -1.96775 -1.64114 -0.08126
thorax 13.3348 -1.48595 3.7884
lowerneck -2.22938 -2.36018 -1.44919
upperneck 19.8535 -5.51728 4.24384
head 6.54902 -3.04671 1.18274
rclavicle -1.60519e-014 -2.97183e-014
rhumerus -41.2872 -31.7104 -65.2099
rradius 17.3918
rwrist 16.7489
rhand -9.24016 -56.7046
rfingers 7.12502
rthumb 16.7153 -86.005
lclavicle -1.60519e-014 -2.97183e-014
lhumerus -32.7476 14.3255 76.9191
lradius 15.9392
lwrist -9.10216
lhand -22.4187 -12.5217
lfingers 7.12502
lthumb 4.00445 17.4205
rfemur -24.9744 4.43026 18.0256
rtibia 6.0021
rfoot -16.9105 -2.36506
rtoes -8.64565
lfemur -25.1313 -8.11137 -24.006
ltibia 7.2602
lfoot -6.70942 -1.37031
ltoes -27.1132
33
root -0.994427 19.6775 20.5888 -152.481 -2.95918 176.22
lowerback -27.5728 -2.61467 -7.89564
upperback -1.9801 -1.62732 -0.0577101
thorax 13.348 -1.48005 3.80396
lowerneck -2.3705 -2.47409 -1.54501
upperneck 19.8635 -5.65969 4.2598
head 6.58439 -3.11413 1.19153
rclavicle -2.16178e-015 -5.96354e-016
rhumerus -41.198 -31.8055 -65.0516
rradius 17.4247
rwrist 17.4283
rhand -8.02506 -57.292
rfingers 7.12502
rthumb 17.8847 -86.4896
lclavicle -2.16178e-015 -5.96354e-016
lhumerus -32.6418 13.5832 77.4912
lradius 16.2788
lwrist -8.34011
lhand -22.5519 -12.6393
lfingers 7.12502
lthumb 3.87584 17.3052
rfemur -24.9692 4.43311 18.0532
rtibia 6.04327
rfoot -16.9455 -2.38005
rtoes -8.35314
lfemur -25.09 -8.16342 -23.9804
ltibia 7.25553
lfoot -6.74378 -1.32555
ltoes -26.4593
34
root -0.997906 19.6742 20.5806 -152.507 -2.90439 176.25
lowerback -27.7474 -2.59929 -7.89941
upperback -1.62565 -1.59587 0.0791834
thorax 13.0821 -1.4473 3.73501
lowerneck -2.21537 -2.53171 -1.53816
upperneck 19.5554 -5.67981 4.217
head 6.45792 -3.12104 1.18258
rclavicle 1.13432e-014 -4.47266e-015
rhumerus -41.1474 -31.9551 -64.873
rradius 17.4199
rwrist 17.8552
rhand -7.32786 -57.3614
rfingers 7.12502
rthumb 18.5555 -86.4964
lclavicle 1.13432e-014 -4.47266e-015
lhumerus -32.5293 13.0323 77.9666
lradius 16.6037
lwrist -7.66026
lhand -22.2688 -12.5956
lfingers 7.12502
lthumb 4.14918 17.3437
rfemur -24.9327 4.47491 18.0724
rtibia 6.0385
rfoot -16.9872 -2.31066
rtoes -8.23422
lfemur -24.9834 -8.13574 -23.9986
ltibia 7.19418
lfoot -6.81205 -1.31168
ltoes -25.8599
35
root -0.997926 19.6714 20.5765 -152.511 -3.05032 176.174
lowerback -27.7803 -2.69108 -7.99707
upperback -1.6475 -1.6909 0.103323
thorax 13.0858 -1.49773 3.77685
lowerneck -2.0665 -2.49001 -1.56552
upperneck 19.2544 -5.5752 4.25497
head 6.33406 -3.06464 1.21286
rclavicle 8.99501e-015 -8.15017e-015
rhumerus -40.9707 -31.9598 -64.9465
rradius 17.4162
rwrist 17.2779
rhand -8.04035 -56.6786
rfingers 7.12502
rthumb 17.87 -85.8776
lclavicle 8.99501e-015 -8.15017e-015
lhumerus -32.3853 12.6233 78.3446
lradius 16.8913
lwrist -7.12809
lhand -22.0891 -12.7007
lfingers 7.12502
lthumb 4.32271 17.2352
rfemur -24.8511 4.38849 18.0204
rtibia 5.95446
rfoot -16.9801 -2.35505
rtoes -8.58592
lfemur -24.9785 -8.11198 -24.0886
ltibia 7.22582
lfoot -6.75192 -1.52012
ltoes -25.8186
36
root -1.00849 19.6712 20.5837 -152.295 -2.85453 176.338
lowerback -28.0048 -2.54958 -7.74122
upperback -1.72933 -1.58753 0.0858229
thorax 13.0788 -1.44188 3.65158
lowerneck -2.0277 -2.41157 -1.46595
upperneck 19.1689 -5.44592 4.19468
head 6.29182 -2.99754 1.18735
rclavicle 6.18717e-015 -2.00773e-014
rhumerus -40.8028 -32.1226 -64.9266
rradius 17.3553
rwrist 16.8226
rhand -8.88455 -55.869
rfingers 7.12502
rthumb 17.0576 -85.1401
lclavicle 6.18717e-015 -2.00773e-014
lhumerus -32.1472 12.5253 78.5273
lradius 16.9981
lwrist -7.04342
lhand -22.0843 -12.9636
lfingers 7.12502
lthumb 4.32737 16.9722
rfemur -25.3811 4.08334 18.2003
rtibia 6.31762
rfoot -16.9504 -1.89555
rtoes -9.16571
lfemur -25.3056 -8.25246 -23.9084
ltibia 7.28784
lfoot -6.69926 -1.10596
ltoes -26.8711
37
root -1.01104 19.6706 20.5867 -152.13 -2.76652 176.432
lowerback -28.2066 -2.47564 -7.65951
upperback -1.78235 -1.51481 0.0664516
thorax 13.0998 -1.4097 3.60742
lowerneck -1.44194 -2.43112 -1.34275
upperneck 18.112 -5.29651 4.0975
head 5.84609 -2.90784 1.16977
rclavicle 7.20594e-016 1.0138e-014
rhumerus -40.6836 -32.428 -64.7652
rradius 17.2627
rwrist 17.3836
rhand -8.37897 -56.0408
rfingers 7.12502
rthumb 17.5442 -85.2692
lclavicle 7.20594e-016 1.0138e-014
lhumerus -31.8137 12.6869 78.5778
lradius 16.912
lwrist -7.29634
lhand -22.031 -13.3245
lfingers 7.12502
lthumb 4.37879 16.6102
rfemur -25.6785 4.155 18.2732
rtibia 6.4663
rfoot -16.9526 -1.90511
rtoes -8.87933
lfemur -25.5398 -8.21578 -23.8007
ltibia 7.34096
lfoot -6.69653 -0.997712
ltoes -27.603
